/* XPM */
static char *_4bf67993a854478a6ae55b3b917f1747Ky8SZeN4eDMFjjB[] = {
/* columns rows colors chars-per-pixel */
"50 50 112 2 ",
"   c #3F3023",
".  c #3B3127",
"X  c #3E3024",
"o  c #3E3124",
"O  c #3C3126",
"+  c #3E3624",
"@  c #35322F",
"#  c #36322F",
"$  c #37352C",
"%  c #36372E",
"&  c #3B3128",
"*  c #38312B",
"=  c #38322C",
"-  c #373D2B",
";  c #353D2E",
":  c gray20",
">  c #353231",
",  c #353331",
"<  c #343332",
"1  c #373534",
"2  c #3D3631",
"3  c #3A3735",
"4  c #343830",
"5  c #343831",
"6  c #3E3936",
"7  c #403022",
"8  c #403621",
"9  c #4A3424",
"0  c #45342A",
"q  c #43362D",
"w  c #4A342E",
"e  c #4C392B",
"r  c #483A2F",
"t  c #4E392E",
"y  c #563724",
"u  c #56342B",
"i  c #593D2F",
"p  c #4A3A32",
"a  c #423B38",
"s  c #463D39",
"d  c #493F3B",
"f  c #563D32",
"g  c #6C3E25",
"h  c #623529",
"j  c #7A3524",
"k  c #793B2A",
"l  c #3C591F",
"z  c #3D5C1E",
"x  c #394927",
"c  c #394A26",
"v  c #394F25",
"b  c #394C26",
"n  c #36422B",
"m  c #37452A",
"M  c #384728",
"N  c #3A5223",
"B  c #3B5223",
"V  c #3B5720",
"C  c #3C5720",
"Z  c #4C412E",
"A  c #4E492B",
"S  c #535D20",
"D  c #544033",
"F  c #574234",
"G  c #50433D",
"H  c #58483F",
"J  c #6A5F22",
"K  c #624132",
"L  c #624B3E",
"P  c #7A4731",
"I  c #7A4732",
"U  c #6C6838",
"Y  c #5F4B42",
"T  c #674F45",
"R  c #684F42",
"E  c #6E5447",
"W  c #7E604B",
"Q  c #92391E",
"!  c #913C24",
"~  c #D93E0E",
"^  c #D73911",
"/  c #E43F0F",
"(  c #EF3A0C",
")  c #964B15",
"_  c #884326",
"`  c #974C28",
"'  c #8A5F27",
"]  c #914E31",
"[  c #9C5130",
"{  c #A84323",
"}  c #BF4322",
"|  c #A85530",
" . c #AE5E3B",
".. c #966226",
"X. c #BA673E",
"o. c #C34210",
"O. c #D94413",
"+. c #DA481D",
"@. c #EF4010",
"#. c #EF4614",
"$. c #EF4615",
"%. c #C05B30",
"&. c #C05C30",
"*. c #D7622F",
"=. c #E3662F",
"-. c #EF692F",
";. c #85644C",
":. c #8F6D4E",
">. c #90724B",
",. c #96734E",
"<. c #9C7552",
"1. c #C56F40",
/* pixels */
": : : : : : : : : : : : : : : : : : : : : : : : : : : : : : : : : : : : : : : : : : : : : : : : : : ",
": : : : : : : : : : : : : : : : : : : : : : : : : : : : : : : : : : : : : : : : : : : : : : : : : : ",
": : : : : : : : : : : : : : : : : : : : : : : : : : : : : : : : : : : : : : : : : : : : : : : : : : ",
": : : : : : : : : : : : : : : : : : : : : : : : : : : : : : : : : : : : : : : : : : : : : : : : : : ",
": : : : : : : : : : : : : : : : : : : : : : : : : : : : : : : : : : : : : : : : : : : : : : : : : : ",
": : : : : : : : : : : : : : : : : : : : : : a H H H H : : : : : : : : : : : : : : : : : : : : : : : ",
": : : : : : : : : : : : : : : : : : : : : : s T E E E 3 1 : : : : : : : : : : : : : : : : : : : : : ",
": : : : : : : : : : : : : : : : : : : : : : : : E E E E G : : : : : : : : : : : : : : : : : : : : : ",
": : : : : : : : : : : : : : : : : : : : : : : : } } } } k : : : : : : : : : : : : : : : : : : : : : ",
": : : : : : : : : : : : : : : : : : : : : 1 2 w ~ / @.~ Q w : : : : : : : : : : : : : : : : : : : : ",
": : : : : : : : : : : : : : : : : : : : : : j ( z ..-.z ) ^ : : : : : : : : : : : : : : : : : : : : ",
": : : : : : : : : : : : : : : : : : : : : : w h o.O.$.o.Q u : : : : : : : : : : : : : : : : : : : : ",
": : : : : : : : : : : : : : : : : : : : : : : : #.$.$.$.! : : : : : : : : : : : : : : : : : : : : : ",
": : : : : : : : : : : : : : : : : : : : : < : : -.-.-.-.] : : : : : : : : : : : : : : : : : : : : : ",
": : : : : : : : : : : : : : : : : : : i &.p : < $.{ K K p : : : : : : : : : : : : : : : : : : : : : ",
": : : : : : : : : : : : : : : : : : 1 P -.Z ; ; +._ ; ; % : : : : : : : : : : : : : : : : : : : : : ",
": : : : : : : : : : : : : : : : : : : P -.S z z <.U z z M : : : : : : : : : : : : : : : : : : : : : ",
": : : : : : : : : : : : : : : : : : : P -.S z z <.U z z ' %.: : : : : : : : : : : : : : : : : : : : ",
": : : : : : : : : : : : : : : : : : : P -.S z z <.U z z ..*.: : : : : : : : : : : : : : : : : : : : ",
": : : : : : : : : : : : : : : : : : : I -.S z z <.U z z ..*.: : : : : : : : : : : : : : : : : : : : ",
": : : : : : : : : : : : @ : : : : : %.| p C z z <.,.>.z ..*.: : : : : : : : : : : : : : : : : : : : ",
": : : : : : : : : : : : g P P q p I | P : x B z <.<.<.z ..*.: : : : : : : : : : : : : : : : : : : : ",
": : : : : : : : : : : : X.-.-.g g -.p : : : n z <.<.<.z ..*.: : : : : : : : : : : : : : : : : : : : ",
": : : : : : : : : : : : B J -.K < < : : : : n z <.<.<.<.1.*.: : : : : : : : : : : : : : : : : : : : ",
": : : : : : : : : ; m M M A ] p : : : : : m v z <.<.<.;.X.=.] f : : : : : : : : : : : : : : : : : : ",
": : : : : : : : : v z z ; < : : : : : : : V z z <.<.<.E  .-.-.P : : : : : : : : : : : : : : : : : : ",
": : : : : : : : z z z z ; : : : : : : : : :.<.<.E E E E G p -.I : : : : : : : : : : : : : : : : : : ",
": : : : : 1 @ 1 z z z M 1 : : : : : : 6 G W ;.;.E L F F p 0 ` i : : : : : : : : : : : : : : : : : : ",
": : : : : : : % C C B : : : : : : : : d E E E E R D 7 7   7 y t w : : : : : : : : : : : : : : : : : ",
": : : : : : : : : : : : : : : : : : : d E E E E 7 7 7 7 7 y -.-.*.@ : : : : : : : : : : : : : : : : ",
": : : : : : : : : : : : : : : : : : : d E E Y d = = * 7 7 9 P %.*.* : : : : : : : : : : : : : : : : ",
": : : : : : : : : : : : : : : : : : : d E E H : : : : 7 7 X < [ X.: : : : : : : : : : : : : : : : : ",
": : : : : : : : : : : : : : : : : : : s E E H : : : :       > : : : : : : : : : : : : : : : : : : : ",
": : : : : : : : : : : : : : : : : : : G E E H : : : :       : : : : : : : : : : : : : : : : : : : : ",
": : : : : : : : : : : : : : : : : : : s E E H : : : :       : : : : : : : : : : : : : : : : : : : : ",
": : : : : : : : : : : : : : : : : : : G E E H : : : :   7 O : : : : : : : : : : : : : : : : : : : : ",
": : : : : : : : : : : : : : : : : : : 2 e u q < : : : $ *     $ : : : : : : : : : : : : : : : : : : ",
": : : : : : : : : : : : : : : : : : $ *   7 * < : : : : * .   . @ : : : : : : : : : : : : : : : : : ",
": : : : : : : : : : : : : : : : : :         * < : : : : : #     O : : : : : : : : : : : : : : : : : ",
": : : : : : : : : : : : : : : : : :       * < : : : : : : : # . 7 @ : : : : : : : : : : : : : : : : ",
": : : : : : : : : : : : : : : : < * 7 7 . : : : : : : : : : : $ . * : : : : : : : : : : : : : : : : ",
": : : : : : : : : : : : : : : : <   7 O : : : : : : : : : : : : :   * < : : : : : : : : : : : : : : ",
": : : : : : : : : : : : : : : : ; l $ $ : : : : : : : : : : : @ : $ x x : : : : : : : : : : : : : : ",
": : : : : : : : : : : : : : : : ; z M - = = = = = = = $ * * * * $ n B v : : : : : : : : : : : : : : ",
": : : : : : : : : : : : : : : : ; z z b 7 7 7 7 7 7 7 7     7 7 + z z B : : : : : : : : : : : : : : ",
": : : : : : : : : : : : : : : : : 1 + 8 7 7 7 7 7 7 7 7     7 7 O % @ 1 : : : : : : : : : : : : : : ",
": : : : : : : : : : : : : : : : : : * * * * * * * * * * * * * * % : : : : : : : : : : : : : : : : : ",
": : : : : : : : : : : : : : : : : < < < < < : < < : < < : : : : : : : : : : : : : : : : : : : : : : ",
": : : : : : : : : : : : : : : : : : : : : : : : : : : : : : : : : : : : : : : : : : : : : : : : : : ",
": : : : : : : : : : : : : : : : : : : : : : : : : : : : : : : : : : : : : : : : : : : : : : : : : : "
};
