/* XPM */
static char *_653d965bd27411de621c032a8303ac02b05MKLiEup06mwc[] = {
/* columns rows colors chars-per-pixel */
"50 50 122 2 ",
"   c #3F3023",
".  c #3B3127",
"X  c #3E3024",
"o  c #3E3124",
"O  c #3E3624",
"+  c #37312C",
"@  c #35322F",
"#  c #36322F",
"$  c #37352C",
"%  c #36372E",
"&  c #3B3128",
"*  c #38312B",
"=  c #38312C",
"-  c #38322C",
";  c #373D2B",
":  c #353D2E",
">  c #363D2E",
",  c gray20",
"<  c #343231",
"1  c #353231",
"2  c #343332",
"3  c #373534",
"4  c #3D3631",
"5  c #3A3735",
"6  c #343830",
"7  c #343831",
"8  c #3F3A32",
"9  c #403022",
"0  c #403621",
"q  c #45342A",
"w  c #4A342E",
"e  c #4C392B",
"r  c #483A2F",
"t  c #563724",
"y  c #4A3A32",
"u  c #423B38",
"i  c #463D39",
"p  c #493F3B",
"a  c #6C3E25",
"s  c #623529",
"d  c #673F2C",
"f  c #7A3524",
"g  c #793B2A",
"h  c #3E4B1F",
"j  c #3E571F",
"k  c #3D5C1E",
"l  c #394A26",
"z  c #384A27",
"x  c #394F25",
"c  c #36422B",
"v  c #37452A",
"b  c #384728",
"n  c #3A5123",
"m  c #3A5223",
"M  c #3B5720",
"N  c #3C5720",
"B  c #53571C",
"V  c #454D27",
"C  c #535D20",
"Z  c #4B4231",
"A  c #544033",
"S  c #574234",
"D  c #564A31",
"F  c #574A31",
"G  c #50433D",
"H  c #58483F",
"J  c #555832",
"K  c #6A5F22",
"L  c #624132",
"P  c #6E4432",
"I  c #624B3E",
"U  c #7A4731",
"Y  c #7A4732",
"T  c #625130",
"R  c #735332",
"E  c #7A602F",
"W  c #6C6838",
"Q  c #7A6030",
"!  c #5F4B42",
"~  c #674F45",
"^  c #684F42",
"/  c #675045",
"(  c #6E5447",
")  c #7E604B",
"_  c #92391E",
"`  c #913C24",
"'  c #D93E0E",
"]  c #C13D13",
"[  c #EF3A0C",
"{  c #964B15",
"}  c #AB4115",
"|  c #884326",
" . c #974C28",
".. c #934D2E",
"X. c #854B31",
"o. c #914E31",
"O. c #9D5131",
"+. c #B04123",
"@. c #BF4322",
"#. c #A85530",
"$. c #806124",
"%. c #966226",
"&. c #AC6429",
"*. c #AA7F2D",
"=. c #C34210",
"-. c #D94413",
";. c #DA481D",
":. c #EF4010",
">. c #EF4614",
",. c #EF4615",
"<. c #C05B30",
"1. c #D7622F",
"2. c #D86230",
"3. c #EF692F",
"4. c #E36530",
"5. c #85644C",
"6. c #8F6D4E",
"7. c #90724B",
"8. c #96734E",
"9. c #9C7552",
"0. c #C28E2B",
"q. c #DA9C2A",
/* pixels */
", , , , , , , , , , , , , , , , , , , , , , , , , , , , , , , , , , , , , , , , , , , , , , , , , , ",
", , , , , , , , , , , , , , , , , , , , , , , , , , , , , , , , , , , , , , , , , , , , , , , , , , ",
", , , , , , , , , , , , , , , , , , , , , , , , , , , , , , , , , , , , , , , , , , , , , , , , , , ",
", , , , , , , , , , , , , , , , , , , , , , , , , , , , , , , , , , , , , , , , , , , , , , , , , , ",
", , , , , , , , , , , , , , , , , , , u H H H H , , , , , , , , , , , , , , , , , , , , , , , , , , ",
", , , , , , , , , , , , , , , , , , , i ~ ( ( ( 5 3 , , , , , , , , , , , , , , , , , , , , , , , , ",
", , , , , , , , , , , , , , , , , , , , , / ( ( ( G , , , , , , , , , , , , , , , , , , , , , , , , ",
", , , , , , , , , , , , , , , , , , , , , +.@.@.@.g , , , , , , , , , D *.Z , , , , , , , , , , , , ",
", , , , , , , , , , , , , , , , , , , 4 q ] :.:.' _ w , , , , , , , 8 T q.Q 8 , , , , , , , , , , , ",
", , , , , , , , , , , , , , , , , , , f [ B Q 3.k { [ , , , , , , , *.0., 0.0., , , , , , , , , , , ",
", , , , , , , , , , , , , , , , , , , w s } -.>.=._ s , , , , , , , D Q 0.E D , , , , , , , , , , , ",
", , , , , , , , , , , , , , , , , , , , , -.>.>.>.` , , , , , , , , , D 0.D , , , , , , , , , , , , ",
", , , , , , , , , , , , , , , , , , , , , 2.3.3.3.o., , , , , , , , , , , , , , , , , , , , , , , , ",
", , , , , , , , , , , , , , , , , , , , , L L L >.` , < , , , , , , , , , , , , , , , , , , , , , , ",
", , , , , , , , , , , , , , , , , , , 4 d 8 > > ;.| > > Z L , , , , , , , , , , , , , , , , , , , , ",
", , , , , , , , , , , , , , , , , , , Y 3.C k k 9.W k k %.1., , , , , , , , , , , , , , , , , , , , ",
", , , , , , , , , , , , , , , , , , , Y 3.C k k 9.W k k %.1., , , , , , , , , , , , , , , , , , , , ",
", , , , , , , , , , , , , , , , , , , Y 3.C k k 9.W k k %.1., , , , , , , , , , , , , , , , , , , , ",
", , , , , , , , , , , , , , , , , , , Y 3.C k k 9.W k k %.1., , , , , , , , , , , , , , , , , , , , ",
", , , , , , , , , , , , , , , 3 , , , Y 3.C k k 9.8.7.k %.1., , , , , , , , , , , , , , , , , , , , ",
", , , , , , , , , , , , 6 , , % % , P o.#.V m k 9.9.9.k %.1., , , , , , , , , , , , , , , , , , , , ",
", , , , , , , , , , , , # * , x m , 1.#., < c k 9.9.9.k %.1., , , , , , , , , , , , , , , , , , , , ",
", , , , , , , , , , , , <.3.3.a P 3.r , , , c k 9.9.9.k %.3.3.Y , , , , , , , , , , , , , , , , , , ",
", , , , , , , , , , , v E &.3.d e ..4 , , v m k 9.9.9.J R O.3.Y , , , , , , , , , , , , , , , , , , ",
", , , , , , , , , , 6 k k K 3.S , , , , , j k k 9.9.9.( H y 3.Y , , , , , , , , , , , , , , , , , , ",
", , , , , , , , , z k k k m , , , , , , , 6.9.9.( ( ( ( G < 9 * , , , , , , , , , , , , , , , , , , ",
", , , , , , , , , z k k z v , , , , , 5 G ) 5.5.( I S S r q  ...X., , , , , , , , , , , , , , , , , ",
", , , , , , , , , z M M > , , , , , , i ( ( ( ( ^ y 9 9 9 t 1.4.1., , , , , , , , , , , , , , , , , ",
", , , , , , , , , , , , , , , , , , , G ( ( ( ( 9 9 9 9 9 o < #.1., , , , , , , , , , , , , , , , , ",
", , , , , , , , , , , , , , , , , , , i ( ( ! G = * * 9 9 o 3 L P , , , , , , , , , , , , , , , , , ",
", , , , , , , , , , , , , , , , , , , i ( ( H , , , , 9   X , , , , , , , , , , , , , , , , , , , , ",
", , , , , , , , , , , , , , , , , , , G ( ( H , , , ,     X , , , , , , , , , , , , , , , , , , , , ",
", , , , , , , , , , , , , , , , , , , p ( ( ! , , , , o 9   , , , , , , , , , , , , , , , , , , , , ",
", , , , , , , , , , , , , , , , , , , p ( ( ! < , , , o     # # , , , , , , , , , , , , , , , , , , ",
", , , , , , , , , , , , , , , , , , < G ( ( ! < , , , X   9   + , , , , , , , , , , , , , , , , , , ",
", , , , , , , , , , , , , , , , , , , $ e e $ < , < < < .     + , , , , , , , , , , , , , , , , , , ",
", , , , , , , , , , , , , , , , , , < * 9 9 = , , , , , <   9 . # , , , , , , , , , , , , , , , , , ",
", , , , , , , , , , , , , , , , , ,     9 9 & , , , , , , #       , , , , , , , , , , , , , , , , , ",
", , , , , , , , , , , , , , , , 3 , 9 9 9 * 6 , , , , , , , # .   , , , , , , , , , , , , , , , , , ",
", , , , , , , , , , , , , , , , < = 9 9 = < , , , , , , , , , # . + , , , , , , , , , , , , , , , , ",
", , , , , , , , , , , , , , , , #   9 . , , , , , , , , , , , , # 9 + , , , , , , , , , , , , , , , ",
", , , , , , , , , , , , , , , , > k $ @ , , , , , , , , , , , 6 , , l x , , , , , , , , , , , , , , ",
", , , , , , , , , , , , , , , , ; k b ; + * * * = = = = = = $ * $ c m x , , , , , , , , , , , , , , ",
", , , , , , , , , , , , , , , , v k V l     9 9 9 9 9 9 9 9 9 9 0 k k m , , , , , , , , , , , , , , ",
", , , , , , , , , , , , , , , , , 6 O 0 9 9 9 9 9 9 9 9 9 9 9 9   # $ 6 , , , , , , , , , , , , , , ",
", , , , , , , , , , , , , , , , , , = = * = = = = = * * * * * . + , , , , , , , , , , , , , , , , , ",
", , , , , , , , , , , , , , , , , , , , < < , , , , 6 < , , , , , , , , , , , , , , , , , , , , , , ",
", , , , , , , , , , , , , , , , , , , , , 6 , , , , < , , , , , , , , , , , , , , , , , , , , , , , ",
", , , , , , , , , , , , , , , , , , , , , , , , , , , , , , , , , , , , , , , , , , , , , , , , , , ",
", , , , , , , , , , , , , , , , , , , , , , , , , , , , , , , , , , , , , , , , , , , , , , , , , , "
};
