/* XPM */
static char *_fd475f26b6e42a2fe8bcd44fa744854RCxJyGtL1u3kjvSA[] = {
/* columns rows colors chars-per-pixel */
"50 50 117 2 ",
"   c #3F3023",
".  c #3E3623",
"X  c #3E3124",
"o  c #36322F",
"O  c #36372E",
"+  c #39312A",
"@  c #38322C",
"#  c #38342C",
"$  c #373D2B",
"%  c #363A2E",
"&  c #363D2E",
"*  c gray20",
"=  c #343231",
"-  c #343531",
";  c #373534",
":  c #3E3431",
">  c #3A3735",
",  c #343831",
"<  c #3F3A32",
"1  c #3E3937",
"2  c #403022",
"3  c #403521",
"4  c #45352A",
"5  c #4A342E",
"6  c #44382F",
"7  c #4C392B",
"8  c #483A2F",
"9  c #4F392C",
"0  c #563724",
"q  c #423B37",
"w  c #4A3A32",
"e  c #4C3F30",
"r  c #453D3A",
"t  c #493F3A",
"y  c #563D32",
"u  c #6C3E25",
"i  c #623529",
"p  c #673F2B",
"a  c #7A3524",
"s  c #793B2A",
"d  c #3E571F",
"f  c #3D5C1E",
"g  c #3E4B20",
"h  c #394A26",
"j  c #394F24",
"k  c #37422B",
"l  c #374529",
"z  c #36402D",
"x  c #38442A",
"c  c #3A5223",
"v  c #3C5721",
"b  c #53581C",
"n  c #454D27",
"m  c #535E20",
"M  c #4A4231",
"N  c #544033",
"B  c #574234",
"V  c #574A31",
"C  c #50433D",
"Z  c #58473F",
"A  c #58483F",
"S  c #555832",
"D  c #6A5F22",
"F  c #7E5C27",
"G  c #624032",
"H  c #6E4432",
"J  c #624B3E",
"K  c #7A4731",
"L  c #625130",
"P  c #735332",
"I  c #7B602F",
"U  c #6C6838",
"Y  c #7A6030",
"T  c #5F4C42",
"R  c #674F45",
"E  c #684F42",
"W  c #675044",
"Q  c #6E5447",
"!  c #7E604A",
"~  c #92391E",
"^  c #913C24",
"/  c #D93E0E",
"(  c #C13D13",
")  c #E43F0F",
"_  c #EF3A0C",
"`  c #964B15",
"'  c #884326",
"]  c #974C28",
"[  c #934D2E",
"{  c #854A31",
"}  c #914E31",
"|  c #9D5131",
" . c #AF4124",
".. c #BF4322",
"X. c #A85530",
"o. c #806024",
"O. c #966226",
"+. c #AC6428",
"@. c #AA7E2D",
"#. c #C34210",
"$. c #CE4412",
"%. c #D74519",
"&. c #DA481D",
"*. c #EF4010",
"=. c #EF4614",
"-. c #C05C30",
";. c #D7622F",
":. c #D86230",
">. c #EF692F",
",. c #E36530",
"<. c #85644C",
"1. c #8F6D4E",
"2. c #90724B",
"3. c #96734E",
"4. c #9C7552",
"5. c #C28E2B",
"6. c #DA9C2A",
/* pixels */
"* * * * * * * * * * * * * * * * * * * * * * * * * * * * * * * * * * * * * * * * * * * * * * * * * * ",
"* * * * * * * * * * * * * * * * * * * * * * * * * * * * * * * * * * * * * * * * * * * * * * * * * * ",
"* * * * * * * * * * * * * * * * * * * * * * * * * * * * * * * * * * * * * * * * * * * * * * * * * * ",
"* * * * * * * * * * * * * * * * * * * * * * * * * * * * * * * * * * * * * * * * * * * * * * * * * * ",
"* * * * * * * * * * * * * * * * * * * * * * * * * * A A A A q * * * * * * * * * * * * * * * * * * * ",
"* * * * * * * * * * * * * * * * * * * * * * * * ; > Q Q Q R r * * * * * * * * * * * * * * * * * * * ",
"* * * * * * * * * * * * * * * * * * * * * * * * C Q Q Q W * * * * * * * * * * * * * * * * * * * * * ",
"* * * * * * * * * * * * V @.M * * * * * * * * * s ...... .* * * * * * * * * * * * * * * * * * * * * ",
"* * * * * * * * * * * M L 6.I < * * * * * * * 5 ~ / *.) ( 5 : * * * * * * * * * * * * * * * * * * * ",
"* * * * * * * * * * * 5.5.* 5.@.* * * * * * * _ ` f >.o.b _ a * * * * * * * * * * * * * * * * * * * ",
"* * * * * * * * * * * V Y 5.I M * * * * * * * i ~ #.=.$.( i : * * * * * * * * * * * * * * * * * * * ",
"* * * * * * * * * * * * V 5.V * * * * * * * * * ^ =.=.=.%.* * * * * * * * * * * * * * * * * * * * * ",
"* * * * * * * * * * * * * * * * * * * * * * * * } >.>.>.;.* * * * * * * * * * * * * * * * * * * * * ",
"* * * * * * * * * * * * * * * * * * * * * * * * ^ =.G G y * * * * * * * * * * * * * * * * * * * * * ",
"* * * * * * * * * * * * * * * * * * * * y e & & ' &.& & & G w * * * * * * * * * * * * * * * * * * * ",
"* * * * * * * * * * * * * * * * * * * * :.O.f f U 4.f f m >.K * * * * * * * * * * * * * * * * * * * ",
"* * * * * * * * * * * * * * * * * * * * :.O.f f U 4.f f m >.K * * * * * * * * * * * * * * * * * * * ",
"* * * * * * * * * * * * * * * * * * * * :.O.f f U 4.f f m >.K * * * * * * * * * * * * * * * * * * * ",
"* * * * * * * * * * * * * * * * * * * * :.O.f f U 4.f f m >.K * * * * * * * * * * * * * * * * * * * ",
"* * * * * * * * * * * * * * * * * * * * :.O.f 2.3.4.f f m >.K * * * * * * * * * * * * * * * * * * * ",
"* * * * * * * * * * * * * * * * * * * * :.O.f 4.4.4.f c n X.} H * z & * * * * * * * * * * * * * * * ",
"* * * * * * * * * * * * * * * * * * * * :.O.f 4.4.4.f k * * X.;.* c c * * * * * * * * * * * * * * * ",
"* * * * * * * * * * * * * * * * * * K >.>.O.f 4.4.4.f k * * * w >.u u >.>.-.* * * * * * * * * * * * ",
"* * * * * * * * * * * * * * * * * * K >.| P S 4.4.4.f j l * * : } 9 p >.+.F x - * * * * * * * * * * ",
"* * * * * * * * * * * * * * * * * * K >.w C Q 4.4.4.f f v * * * * * G >.D f f , * * * * * * * * * * ",
"* * * * * * * * * * * * * * * * * * @ 2 = C Q Q Q Q 4.4.1.* * * * * * * c f f f j * * * * * * * * * ",
"* * * * * * * * * * * * * * * * * { [ ] 4 8 B B J Q <.<.! C 1 * * * * * k j f f j * * * * * * * * * ",
"* * * * * * * * * * * * * * * * * :.,.:.0 2 2 2 N E Q Q Q Q t * * * * * * % v v h * * * * * * * * * ",
"* * * * * * * * * * * * * * * * * :.X.* X 2 2 2 2 2 Q Q Q Q t * * * * * * * * * * * * * * * * * * * ",
"* * * * * * * * * * * * * * * * * H G * X 2 2 @ @ @ t T Q Q t * * * * * * * * * * * * * * * * * * * ",
"* * * * * * * * * * * * * * * * * * * * X 2 2 * * * * Z Q Q t * * * * * * * * * * * * * * * * * * * ",
"* * * * * * * * * * * * * * * * * * * * X 2 2 * * * * Z Q Q t * * * * * * * * * * * * * * * * * * * ",
"* * * * * * * * * * * * * * * * * * * * X 2 2 * * * * Z Q Q t * * * * * * * * * * * * * * * * * * * ",
"* * * * * * * * * * * * * * * * * * = o   2 2 * * * * Z Q Q t * * * * * * * * * * * * * * * * * * * ",
"* * * * * * * * * * * * * * * * * * @ 2 2 2 2 * * * * Z Q Q t * * * * * * * * * * * * * * * * * * * ",
"* * * * * * * * * * * * * * * * * * @ 2 2 + o * * * * 6 7 7 # * * * * * * * * * * * * * * * * * * * ",
"* * * * * * * * * * * * * * * * * o + 2 X @ * * * * * + 2 2 + o * * * * * * * * * * * * * * * * * * ",
"* * * * * * * * * * * * * * * * * X 2 2 = * * * * * * + 2 2 2 X * * * * * * * * * * * * * * * * * * ",
"* * * * * * * * * * * * * * * * * X X o * * * * * * * = o 2 2 X * * * * * * * * * * * * * * * * * * ",
"* * * * * * * * * * * * * * * = @ + @ * * * * * * * * * = + X   @ = * * * * * * * * * * * * * * * * ",
"* * * * * * * * * * * * * * * @ 2 = * * * * * * * * * * * * + 2 2 o * * * * * * * * * * * * * * * * ",
"* * * * * * * * * * * * * * j h = * * * * * * * * * * * * * = O d % * * * * * * * * * * * * * * * * ",
"* * * * * * * * * * * * * * c c k # @ @ @ @ @ @ @ @ @ @ @ @ $ x f & * * * * * * * * * * * * * * * * ",
"* * * * * * * * * * * * * * c f f 3 2 2 2 2 2 2 2 2 2 2 2 2 g f f & * * * * * * * * * * * * * * * * ",
"* * * * * * * * * * * * * * - , , X 2 2 2 2 2 2 2 2 2 2 2 2 2 . , - * * * * * * * * * * * * * * * * ",
"* * * * * * * * * * * * * * * * * @ + + + + + + + + + + + + + + * * * * * * * * * * * * * * * * * * ",
"* * * * * * * * * * * * * * * * * * * * * * * * * * * * * * * * * * * * * * * * * * * * * * * * * * ",
"* * * * * * * * * * * * * * * * * * * * * * * * * * * * * * * * * * * * * * * * * * * * * * * * * * ",
"* * * * * * * * * * * * * * * * * * * * * * * * * * * * * * * * * * * * * * * * * * * * * * * * * * ",
"* * * * * * * * * * * * * * * * * * * * * * * * * * * * * * * * * * * * * * * * * * * * * * * * * * "
};
