/* XPM */
static char *_db30969794c497bf75829e4728687f7Vi8HFMVaU43dX2Zh[] = {
/* columns rows colors chars-per-pixel */
"50 50 111 2 ",
"   c #3F3023",
".  c #3B3027",
"X  c #3C3026",
"o  c #3F3B21",
"O  c #36322F",
"+  c #36342E",
"@  c #39312A",
"#  c #38322C",
"$  c #363A2E",
"%  c #353D2E",
"&  c #383A2A",
"*  c #383D2A",
"=  c gray20",
"-  c #343231",
";  c #343531",
":  c #373534",
">  c #3C3733",
",  c #3A3736",
"<  c #343830",
"1  c #403022",
"2  c #403621",
"3  c #463527",
"4  c #4A342E",
"5  c #543726",
"6  c #5C3B2A",
"7  c #403731",
"8  c #4A3A32",
"9  c #4C3F30",
"0  c #423B38",
"q  c #493F3B",
"w  c #563E32",
"e  c #6E3527",
"r  c #6A3F27",
"t  c #623429",
"y  c #3E511F",
"u  c #3C5A1F",
"i  c #3D5C1E",
"p  c #3F4121",
"a  c #3C4923",
"s  c #3D4C21",
"d  c #394C26",
"f  c #37422B",
"g  c #37452A",
"h  c #36402D",
"j  c #394228",
"k  c #384728",
"l  c #3B5223",
"z  c #3B5720",
"x  c #3C5720",
"c  c #42432D",
"v  c #58452E",
"b  c #495F25",
"n  c #535D20",
"m  c #5E5C23",
"M  c #5E562D",
"N  c #554032",
"B  c #574234",
"V  c #504E35",
"C  c #57453B",
"Z  c #50433D",
"A  c #54463E",
"S  c #58473F",
"D  c #7B472F",
"F  c #6A5F22",
"G  c #624132",
"H  c #6E4431",
"J  c #624B3E",
"K  c #674A3E",
"L  c #7A4732",
"P  c #615D37",
"I  c #7E503F",
"U  c #6C6838",
"Y  c #786B3F",
"T  c #5F4B42",
"R  c #5F4C42",
"E  c #684F42",
"W  c #675442",
"Q  c #675045",
"!  c #6A5246",
"~  c #6E5447",
"^  c #91361F",
"/  c #A8381B",
"(  c #B43E1C",
")  c #C03815",
"_  c #EF3A0C",
"`  c #954B2A",
"'  c #854B31",
"]  c #914E31",
"[  c #9D5130",
"{  c #A85530",
"}  c #966226",
"|  c #EF4010",
" . c #E34E1D",
".. c #EF511D",
"X. c #C04A23",
"o. c #C35B2C",
"O. c #D05026",
"+. c #C05B30",
"@. c #C05C30",
"#. c #CC5F30",
"$. c #EF5722",
"%. c #EF5D26",
"&. c #D7622F",
"*. c #D9672D",
"=. c #D86230",
"-. c #E3662F",
";. c #E4682E",
":. c #EF692F",
">. c #88664D",
",. c #8A694E",
"<. c #9C7552",
/* pixels */
"= = = = = = = = = = = = = = = = = = = = = = = = = = = = = = = = = = = = = = = = = = = = = = = = = = ",
"= = = = = = = = = = = = = = = = = = = = = = = = = = = = = = = = = = = = = = = = = = = = = = = = = = ",
"= = = = = = = = = = = = = = = = = = = = = = = = = = = = = = = = = = = = = = = = = = = = = = = = = = ",
"= = = = = = = = = = = = = = = = = = = = = = = = , 0 0 0 0 : = = = = = = = = = = = = = = = = = = = = ",
"= = = = = = = = = = = = = = = = = = = = = = = = Z ~ ~ ~ ~ , = = = = = = = = = = = = = = = = = = = = ",
"= = = = = = = = = = = = = = = = = = = = = = = = , 0 ~ ~ ~ R A = = = = = = = = = = = = = = = = = = = ",
"= = = = = = = = = = = = = = = = = = = = = = = = = = I I I I K = = = = = = = = = = = = = = = = = = = ",
"= = = = = = = = = = = = = = = = = = = = = = = = = = _ _ _ _ ) = = = = = = = = = = = = = = = = = = = ",
"= = = = = = = = = = = = = = = = = = = = = = = = e / $.$.$.$. ./ 4 = = = = = = = = = = = = = = = = = ",
"= = = = = = = = = = = = = = = = = = = = = = = = ^ _ :.:.:.:.%._ t = = = = = = = = = = = = = = = = = ",
"= = = = = = = = = = = = = = = = = = = = = = = = = = _ _ _ _ ) = = = = = = = = = = = = = = = = = = = ",
"= = = = = = = = = = = = = = = = = = = = = = = = = = ........X.= = = = = = = = = = = = = = = = = = = ",
"= = = = = = = = = = = = = = = = = = = = = = = = = = :.:.:.:.@.= = = = = = = = = = = = = = = = = = = ",
"= = = = = = = = = = = = = = = = = = = = = [ #.= = = | ( 8 8 8 = = = = = = = = = = = = = = = = = = = ",
"= = = = = = = = = = = = = = = = = = = = = { -.f f f O.` f f % = = = = = = = = = = = = = = = = = = = ",
"= = = = = = = = = = = = = = = = = = = = = { ;.i i i <.Y i i l = = = = = = = = = = = = = = = = = = = ",
"= = = = = = = = = = = = = = = = = = = = = { :.i i i <.Y i i m @.w = = = = = = = = = = = = = = = = = ",
"= = = = = = = = = = = = = = = = = = = = = { *.i i i <.Y i i F :.G = = = = = = = = = = = = = = = = = ",
"= = = = = = = = = = = = = = = = = = = = = { ;.i i i <.Y i i F :.G = = = = = = = = = = = = = = = = = ",
"= = = = = = = = = = = = = % d ; = = = 8 { ] H i i i <.Y i i F :.H = = = = = = = = = = = = = = = = = ",
"= = = = = = = = = = = = = c n 9 7 - 8 G =.H < x u i <.Y i i F :.G = = = = = = = = = = = = = = = = = ",
"= = = = = = = = = = = = = L :.:.o.1 o.&.= = = = k i <.Y i i F :.G = = = = = = = = = = = = = = = = = ",
"= = = = = = = = = = = = = v } ;.o.@ D ' = = = = V U <.Y i i F :.G = = = = = = = = = = = = = = = = = ",
"= = = = = = = = = = = = = f i *.@.= = = = = = = W <.<.Y i i F :.G = = = = = = = = = = = = = = = = = ",
"= = = = = = = = = = = = i i i i l = = = = = = ~ ~ ~ <.<.<.b F :.:.&.= = = = = = = = = = = = = = = = ",
"= = = = = = = = = = = = i i i i l = = = = 0 q ~ ~ ~ >.,.,.P M { -.&.= = = = = = = = = = = = = = = = ",
"= = = = = = = = = = = = i i i i l = = = = S ~ ~ ~ ~ ~ ~ ~ ~ T = +.&.= = = = = = = = = = = = = = = = ",
"= = = = = = = = = = = = < g i % < = = , Q ! ~ ~ ~ ~ ~ ~ ~ ~ T = 3 5 = = = = = = = = = = = = = = = = ",
"= = = = = = = = = = = = = h l ; = = = , ~ ~ ~ ~ E J J J J J C = 6 r G 8 = = = = = = = = = = = = = = ",
"= = = = = = = = = = = = = = = = = = = , ~ ~ ~ ~ B 1 1 1 1 1 X = +.:.:.L = = = = = = = = = = = = = = ",
"= = = = = = = = = = = = = = = = = = = , ~ ~ ~ 0 > O 1 1 1 1 X = w H :.L = = = = = = = = = = = = = = ",
"= = = = = = = = = = = = = = = = = = , 0 ~ ~ ~ = = = 1 1 1 1 X = = 8 =.L = = = = = = = = = = = = = = ",
"= = = = = = = = = = = = = = = = = = R ~ ~ ~ ~ = = = 1 1 1 1 X = = = = = = = = = = = = = = = = = = = ",
"= = = = = = = = = = = = = = = = = = 8 N ~ ~ ~ = = = 1 1 1 # O = = = = = = = = = = = = = = = = = = = ",
"= = = = = = = = = = = = = = = = = = X 3 ~ ~ ~ = = = 1 1 1 - = = = = = = = = = = = = = = = = = = = = ",
"= = = = = = = = = = = = = = = = = = X 1 1 O = = = = 1 1 1 - = = = = = = = = = = = = = = = = = = = = ",
"= = = = = = = = = = = = = = = = = = X 1 1 O = = = = 1 1 1 - = = = = = = = = = = = = = = = = = = = = ",
"= = = = = = = = = = = = = = = = = = X 1 1 O = = = = 1 1 1 - = = = = = = = = = = = = = = = = = = = = ",
"= = = = = = = = = = = = = = = = O X   X - - = = = = - # 1 X @ = = = = = = = = = = = = = = = = = = = ",
"= = = = = = = = = = = = = = = O @ 1 . @ = = = = = = = O @   X # - = = = = = = = = = = = = = = = = = ",
"= = = = = = = = = = = = = = = X 1 1 O = = = = = = = = = = X 1 1 O = = = = = = = = = = = = = = = = = ",
"= = = = = = = = = = = = = = = s a O - = = = = = = = = = = O & y $ = = = = = = = = = = = = = = = = = ",
"= = = = = = = = = = = = = = = z z % + O O O O O O O O O O O * i g % = = = = = = = = = = = = = = = = ",
"= = = = = = = = = = = = = = = z i i o 1 1 1 1 1 1 1 1 1 1 1 o i i x = = = = = = = = = = = = = = = = ",
"= = = = = = = = = = = = = = = h j p 2 1 1 1 1 1 1 1 1 1 1 1 1 p j % = = = = = = = = = = = = = = = = ",
"= = = = = = = = = = = = = = = = - X X X X X X X X X X X X X X X O = = = = = = = = = = = = = = = = = ",
"= = = = = = = = = = = = = = = = = = = = = = = = = = = = = = = = = = = = = = = = = = = = = = = = = = ",
"= = = = = = = = = = = = = = = = = = = = = = = = = = = = = = = = = = = = = = = = = = = = = = = = = = ",
"= = = = = = = = = = = = = = = = = = = = = = = = = = = = = = = = = = = = = = = = = = = = = = = = = = ",
"= = = = = = = = = = = = = = = = = = = = = = = = = = = = = = = = = = = = = = = = = = = = = = = = = = "
};
