/* XPM */
static char *_f003a4cb68b488ffffd86677d4d02f2etCYsMSMgjdobWsy[] = {
/* columns rows colors chars-per-pixel */
"50 50 21 1 ",
"  c gray20",
". c #3C3630",
"X c #463A2C",
"o c #4F3D29",
"O c #503D29",
"+ c #6B471F",
"@ c #754B1D",
"# c #7E4E19",
"$ c #594026",
"% c #624423",
"& c #6B4720",
"* c #6C4820",
"= c #885216",
"- c #915513",
"; c #9B5910",
": c #A45C0D",
"> c #AD5F09",
", c #AE600A",
"< c #B76306",
"1 c #C06603",
"2 c #CA6A00",
/* pixels */
"                                                  ",
"                                                  ",
"                                                  ",
"                                                  ",
"                                                  ",
"                                                  ",
"                                                  ",
"                                                  ",
"                                                  ",
"                                                  ",
"                                                  ",
"                                                  ",
"                        o:&                       ",
"                      X$,<<&X                     ",
"                     o1:>$-<1%                    ",
"                    %<=.###O&1*                   ",
"                    -#.      %:                   ",
"                   &1$        1#                  ",
"                   #+         $-                  ",
"                   #-.        #-                  ",
"                   $,$        <%                  ",
"                    ->X      -:                   ",
"                    .,<     ;2X                   ",
"                      <2222<:.                    ",
"                      =-:2,$                      ",
"                       .;2,$                      ",
"                       .@2-.                      ",
"                        $2#                       ",
"                        @2-X                      ",
"                       .-22+                      ",
"                        $2;X                      ",
"                       X<21%                      ",
"                       X,2#                       ",
"                       .#2;X                      ",
"                       .-22+                      ",
"                       .,22+                      ",
"                       X22-X                      ",
"                       X:::$                      ",
"                                                  ",
"                                                  ",
"                                                  ",
"                                                  ",
"                                                  ",
"                                                  ",
"                                                  ",
"                                                  ",
"                                                  ",
"                                                  ",
"                                                  ",
"                                                  "
};
