/* XPM */
static char *abd18c7e045b4418c52bea8e8e683982nTaTSfvI5I64O5pT[] = {
/* columns rows colors chars-per-pixel */
"50 50 75 1 ",
"  c gray20",
". c #663B25",
"X c #623B28",
"o c #6A3B32",
"O c #6C3A31",
"+ c #6B3934",
"@ c #6C3E36",
"# c #693D38",
"$ c #5B4536",
"% c #5E4738",
"& c #6A413B",
"* c #6C4F3A",
"= c #744236",
"- c #774737",
"; c #734833",
": c #724834",
"> c #7A4A34",
", c #7F4D37",
"< c #7D4B3B",
"1 c #7E4E38",
"2 c #7A4E3D",
"3 c #7C4F3D",
"4 c #6C5037",
"5 c #6B5039",
"6 c #7E503C",
"7 c #79645D",
"8 c #766861",
"9 c #804D3A",
"0 c #804E3C",
"q c #885B3F",
"w c #8B5E3E",
"e c #925E37",
"r c #966138",
"t c #9A673A",
"y c #9D6639",
"u c #9B673D",
"i c #9D673D",
"p c #9A683C",
"a c #9C683D",
"s c #9F6D3E",
"d c #A16C3A",
"f c #A66D3B",
"g c #A36D3F",
"h c #A46C3E",
"j c #926442",
"k c #956942",
"l c #9E6F41",
"z c #9D6F47",
"x c #9F7043",
"c c #A16E42",
"v c #A46E43",
"b c #A76C44",
"n c #A17045",
"m c #8F766B",
"M c #8B7B6E",
"N c #9C846C",
"B c #9A8978",
"V c #938E87",
"C c #8F9689",
"Z c #8F968E",
"A c #8D988D",
"S c #959188",
"D c #93938D",
"F c #95938D",
"G c #92978D",
"H c #98918A",
"J c #8F9491",
"K c #919390",
"L c #939691",
"P c #949692",
"I c #999890",
"U c #96A3AA",
"Y c #91A4AF",
"T c #84ABC6",
"R c #88ACC4",
/* pixels */
"        vvvvvvvvvvvvvvvvvvvvvvvvvvvvvvvvv5        ",
"        fffffffffffffffffffffffffffffffff4        ",
"        ccclqwwwwwwwwwwwwwwwwwwwwwwwwjgcc5        ",
"        gggu+=======================@1dgg5        ",
"        gggpOihhhhhhhhhhhhhhhhhhhhhh,,dgg5        ",
"        gghaougggggggggggggggggggggg,>dgg5        ",
"        gghaouggggggggggggggggggggggmMhgg5        ",
"        gghaouggggggggggggggggggggggKAhgg5        ",
"        gghaouggggggggggggggggggggggFCcgg5        ",
"        gghaouggggggggggggggggggggggFZvgg5        ",
"        gghaouggggggggggggggggggggggPJhgg5        ",
"        gghaougggggggggggggggggggggg78hgg5        ",
"        gghaougggggggggggggggggggggg.Xcgg5        ",
"        gghaougggggggggggggggggggggg66ggg5        ",
"        gghaougggggggggggggggggggggg10hgg5        ",
"        gghaougggggggggggggggggggggg19hgg5        ",
"        gghaougggggggggggggggggggggg19hgg5        ",
"        gghaougggggggggggggggggggggg19hgg5        ",
"        gghaougggggggggggggggggggggg19hgg5        ",
"        gghaougggggggggggggggggggggg19hgg5        ",
"        gghaougggggggggggggggggggggg19hgg5        ",
"        gghaougggggggggggggggggggggg19hgg5        ",
"        gghaougggggggggggggggggggggg19hgg5        ",
"        gghaoagsdggggggggggggggggggg19hgg5        ",
"        gghaotNILvcggggggggggggggggg19hgg5        ",
"        gghaotVRTccggggggggggggggggg19hgg5        ",
"        gghaoyBYUnhggggggggggggggggg19hgg5        ",
"        gghaoiczclgggggggggggggggggg19hgg5        ",
"        gghaougggggggggggggggggggggg19hgg5        ",
"        gghaougggggggggggggggggggggg19hgg5        ",
"        gghaougggggggggggggggggggggg19hgg5        ",
"        gghaougggggggggggggggggggggg19hgg5        ",
"        gghaougggggggggggggggggggggg19hgg5        ",
"        gghaougggggggggggggggggggggg19hgg5        ",
"        gghaougggggggggggggggggggggg19hgg5        ",
"        gghaougggggggggggggggggggggg19hgg5        ",
"        gghaougggggggggggggggggggggg19hgg5        ",
"        gghaougggggggggggggggggggggg19hgg5        ",
"        gghaougggggggggggggggggggggg19hgg5        ",
"        gghaougggggggggggggggggggggg19hgg5        ",
"        gghaougggggggggggggggggggggg13ggg5        ",
"        gghaouggggggggggggggggggggggSLbgg5        ",
"        gghaouggggggggggggggggggggggHPggg5        ",
"        gghaouggggggggggggggggggggggDZcgg5        ",
"        gghaouggggggggggggggggggggggFCcgg5        ",
"        gghaouggggggggggggggggggggggFGcgg5        ",
"        gghaougggggggggggggggggggggg$%fgg5        ",
"        gghaougggggggggggggggggggggg;:hgg5        ",
"        gghu+errrrrrrrrrrrrrrrrrrrrr-<hgg5        ",
"        vvck&########################2xvv*        "
};
