/* XPM */
static char *result[] = {
/* columns rows colors chars-per-pixel */
"50 50 168 2 ",
"   c #333333",
".  c #393635",
"X  c #3B3836",
"o  c #3D3B39",
"O  c #423739",
"+  c #423C3B",
"@  c #4B3B3E",
"#  c #44413E",
"$  c #48423F",
"%  c #4C3E41",
"&  c #533F44",
"*  c #5A3E46",
"=  c #643B4A",
"-  c #454341",
";  c #4B4542",
":  c #4D4945",
">  c #4F4C48",
",  c #504645",
"<  c #514945",
"1  c #5A4449",
"2  c #534D49",
"3  c #5D4C4D",
"4  c #55514C",
"5  c #5A544E",
"6  c #5A5651",
"7  c #5C5A53",
"8  c #61454D",
"9  c #60484E",
"0  c #62554F",
"q  c #6D4554",
"w  c #644E53",
"e  c #6B4B55",
"r  c #6F4D59",
"t  c #754D5D",
"y  c #7A4C5E",
"u  c #645453",
"i  c #635B54",
"p  c #695B55",
"a  c #6D535A",
"s  c #645F58",
"d  c #6C5B5A",
"f  c #73525C",
"g  c #715D5C",
"h  c #65625A",
"j  c #6A645D",
"k  c #72655C",
"l  c #73695E",
"z  c #7A5562",
"x  c #795E63",
"c  c #7D5F69",
"v  c #6B6760",
"b  c #6C6961",
"n  c #756661",
"m  c #7B6165",
"M  c #746C63",
"N  c #7B6C65",
"B  c #7A7166",
"V  c #767269",
"C  c #7A7469",
"Z  c #7B786E",
"A  c #7F7C72",
"S  c #825B6A",
"D  c #84616B",
"F  c #846A6F",
"G  c #8A6B6F",
"H  c #8A756B",
"J  c #857A6E",
"K  c #897B6E",
"L  c #8D6776",
"P  c #8D6C75",
"I  c #916C7A",
"U  c #847D72",
"Y  c #8E7B74",
"T  c #927476",
"R  c #937B76",
"E  c #997D77",
"W  c #95757A",
"Q  c #957C79",
"!  c #997B7D",
"~  c #828075",
"^  c #8A8276",
"/  c #868378",
"(  c #89857A",
")  c #8E8A7D",
"_  c #908377",
"`  c #97857D",
"'  c #9C847A",
"]  c #93887C",
"[  c #9D8A7B",
"{  c #A0867F",
"}  c #A1887C",
"|  c #9D7E82",
" . c #8F8D80",
".. c #9C8283",
"X. c #918D81",
"o. c #9F8C8A",
"O. c #969486",
"+. c #999586",
"@. c #979588",
"#. c #9B9689",
"$. c #9E9A8B",
"%. c #A18582",
"&. c #A48D83",
"*. c #A2878A",
"=. c #A48A8A",
"-. c #A88F8B",
";. c #A49384",
":. c #A99586",
">. c #AB9886",
",. c #A7908E",
"<. c #AA958A",
"1. c #A29C8D",
"2. c #AC9B8C",
"3. c #B19C8E",
"4. c #AB9492",
"5. c #A19F90",
"6. c #AE9A91",
"7. c #B19E94",
"8. c #B09B98",
"9. c #A5A08F",
"0. c #ADA18E",
"q. c #B2A48E",
"w. c #A4A192",
"e. c #AAA594",
"r. c #ACA999",
"t. c #B3A493",
"y. c #B8A696",
"u. c #B6A995",
"i. c #B9AA97",
"p. c #B4A49A",
"a. c #B9A59C",
"s. c #B2AC9C",
"d. c #BAAD9A",
"f. c #B4B09F",
"g. c #BDB29D",
"h. c #BBAAA3",
"j. c #B6B2A1",
"k. c #BEB4A1",
"l. c #BCBAA7",
"z. c #BEBBA9",
"x. c #C0B29F",
"c. c #C1B5A3",
"v. c #C5BBA6",
"b. c #C3B5A9",
"n. c #C5BCAA",
"m. c #C9BCAB",
"M. c #CABEB2",
"N. c #C4C1AD",
"B. c #CBC2AD",
"V. c #C6C4B1",
"C. c #CCC5B2",
"Z. c #CEC9B4",
"A. c #CFCCB9",
"S. c #D1C6B4",
"D. c #D2CBB6",
"F. c #D4CDBA",
"G. c #D5D2BC",
"H. c #D9D3BD",
"J. c #D7D6C0",
"K. c #DAD6C1",
"L. c #DADAC4",
"P. c #DFDFC9",
"I. c #E1DCC6",
"U. c #E1DEC9",
"Y. c #E3E3CC",
"T. c #E9E7CF",
"R. c #E7E7D0",
"E. c #E9E9D1",
/* pixels */
"                                                                                                    ",
"                                                        o j 6                                       ",
"      - 7 -                                           + 9.P.G.C o               j $.$.h             ",
"    - z.P.N.-       # .         X e.5.-             . l.L.C.G.G.9.X           A L.L.P.J. .$         ",
"    z.L.L.L.5.    U P.e.X       d R.L.V.j           5 b.G.L.L.Y.F.M         2 T.L.L.L.L.L.;.Z o     ",
"  . D.U.Y.V.F   6 I.Y.b.7     4 4.4.L.P.J.X         c S ..d.n.d.g.g.j       @ -.R.P.L.H.g.H.G.#     ",
"    M d.7.D w   - t...,.L.i   5.Y.W P 4.>.o       5 S y I ' i.c.G.Y.Y.p     , z o.3.d.g.v.R.A.#     ",
"      : ^ a o     : g a.s.%   u h.,.| ;.U       . K g.4.! 2.t.B.Y.R.G.Z   > Y.b.[ >.L.L.Y.P.g.o     ",
"                      X .       < k j 5         % t D m.Y.2.W %.v.y.q.0.  j L.L.Y.d.v.k.g.y.' o     ",
"            2                                   + = t T 2.>.P ' } q.x.t.  2 =.c.v.v.B.F.L.C.M       ",
"          w.L.$..               6 ~ 4             O * E T m.L.G.D.' U >   o r } k.Y.Y.L.D.=..       ",
"        + 8.P.L.G.6           4 A.L.J.6               o w 2.;.E e.-         o u p i u w 3 o         ",
"    X $.V...8.L.D.N       j #.C.L.L.L.$.                  a u 1 ;                                   ",
"    U I.R.8.L W T B     b J.K.v.H.Y.h.g         o ~ b .                                             ",
"    l m.%.p.D.&.K +     / G.h.i.d.6.! 1       7 L.P.Y.V.X.-                                         ",
"    . j P G.p.:         $ ` D Z.C.j 1       Z Y.L.L.L.L.P.F.j     - @.$.@.-     o @.O.2 4 2 > .     ",
"        . : +               , U u         U Y.L.L.L.L.L.H.L.l.  o l.J.J.L.l.- o j.L.L.L.L.L.L. .    ",
"            : j 1.#                       K Y.P.L.J.L.L.L.E.;.  ) L.L.L.L.P.4 ( L.L.L.J.L.J.L.L.2   ",
"          X N.N.L.A.e.+.s -               M x.B.I.I.I.I.F.-.1   l b.L.K.M.P + k b.K.K.P.P.P.L.h.$ . ",
"          6 G.B.L.L.G.C.K.z.( 7           X 0.g.q.0.q.2.d.2.a   3 &.y.p.P r o 2 { 7.s.a.a.h.| z #   ",
"          7 Y.L.J.L.L.L.L.D.G.D.O           2 p.c.d.d.x.d.P 1     @ d f % X     O p R q.u.' e &     ",
"          K 3.F.Y.L.L.P.K.K.B...*             o 1 F 3.<.G = O                         . o X         ",
"        o d.i.t.3.v.n.d.i.%.T S g                 X $ ; O .                                         ",
"        M v.v.g.g.d.g.v.m.M.M.L.s.                                                o + +             ",
"        w.J.L.G.Z.Z.G.L.L.K.h.| &.k $                   V j.j.j.) .             ; G.R.E.(           ",
"        w.L.L.J.J.L.L.L.4.&.g.G.L.G.l.b             ; r.Y.L.L.L.Y.G.X.>       v J.G.J.L.Y.+.        ",
"        K D.L.L.L.L.D.*.6.F.L.L.L.L.L.L.s         : V.L.L.L.L.J.J.L.P.G.>     n P.L.L.L.P.G..       ",
"        # 2.n.Y.Y.Y.b.7.c.P.Y.Y.L.L.L.L.j       . z.P.L.L.J.L.L.L.L.L.Y.v     w W C.S.F.F.J         ",
"          K 2.2.| | 7.g.^ u.y.2.v.K.M.h.@       . t.Y.Y.L.L.L.L.L.P.Y.B.;   #.h.%.>.| m.D.] #       ",
"            # h J J B 5   : N ` E D a 8           K d.c.Z.S.S.D.S.S.y.S O X A.L.Y.H.D.L.D.L.j.      ",
"                              . X X               : p.g.q.>.;.;.>.t.u.T @   ..B.n.x.L.I.P.L.u.      ",
"                                                    4 2.7.i.g.x.g.d.{ q .   9 E t.d.d.v.i.R l       ",
"                      2 #.V                           + , m T ` Q G q @       u J #.q.` z d O       ",
"                    4 N.L.G./ -                             X X . o .             . X X o           ",
"                  : L.L.A.G.G.j.+                                                       .           ",
"                  u >.Z.L.Y.I.W ,                           o : ;                   + 9.Z.4         ",
"                5 :.q.2.q.y.! S e u                       6 N.L.L.$.V o         X B 9.L.h.o.>       ",
"              p i.i.t.x.d.q.W E N.L.>             o ) O.4 C L.H.L.L.L.N.4       j Y.L.B.G.P.s       ",
"          X 5.P.I.H.F.i.c.7.n.J.L.L.j           X w.L.L. .M c.P.L.L.J.J.f.X     : t.b.i / )         ",
"          / Y.P.L.Z.L.u.y.b.V.P.L.L.M           #.L.L.L.X.M u.D.Y.L.L.L.G.:         .               ",
"          J p.F.H.m.=.g.C.L.=.*.F.b.p         i D.I.H.Y.h # g.B.q.H.H.F.} 0                         ",
"          o B &.S y <.n.Y.Y.4.I ! [ j       h g.v.E.E.q.+ # g.q.q.H.q.>.} H .                       ",
"              + % % ; n y.W b.A.} l       l g.g.>.K.B.~   $ c.d.q.u.u.q.q.>.5           > ( Z       ",
"                        p F C.Y .         0.c.i.q.B.x.6   $.H.n.q.q.q.q.u.v.]         : V.L.G.A     ",
"                            - X         5 Y.H.B.u.x.x..   t.D.K.G.Z.x.u.G.Y.N         r.L.L.L.l.    ",
"                                        h B.B.D.Y.v.l     e.3.q.B.x.} x.x.&.k       + ] F.Y.k.x     ",
"                                        5 :.' ' i.B       M 9.>.} } } } } [ 3       r.P.D.e.P a     ",
"                                          + + # #           + j ^ H H _ H 5         <.F.j.M w X     ",
"                                                                . . .               O $ #           ",
"                                                                                                    "
};
